<?xml version="1.0" encoding="UTF-8" standalone="no"?>
<svg width="102px" height="87px" viewBox="0 0 102 87" version="1.1" xmlns="http://www.w3.org/2000/svg" xmlns:xlink="http://www.w3.org/1999/xlink" xmlns:sketch="http://www.bohemiancoding.com/sketch/ns">
    <!-- Generator: Sketch 3.4.4 (17249) - http://www.bohemiancoding.com/sketch -->
    <title>connection icon</title>
    <desc>Created with Sketch.</desc>
    <defs></defs>
    <g id="Page-1" stroke="none" stroke-width="1" fill="none" fill-rule="evenodd" sketch:type="MSPage">
        <g id="Desktop" sketch:type="MSArtboardGroup" transform="translate(-166.000000, -599.000000)" stroke="#221F20">
            <g id="icons" sketch:type="MSLayerGroup" transform="translate(122.000000, 595.000000)">
                <g id="Culture" transform="translate(45.000000, 0.000000)" sketch:type="MSShapeGroup">
                    <g id="Culture-title-and-text" transform="translate(0.000000, 5.000000)">
                        <g id="connection-icon">
                            <path d="M37.7747059,33.2898396 C37.8324599,33.7860963 38.5805882,34.7390374 39.0752406,34.8069519 C39.4618717,34.8609626 40.3752406,34.3304813 40.3752406,33.940107 C40.3752406,31.1229947 40.6271123,22.6663102 41.3506417,24.8374332 C41.8923529,26.4631016 41.6763102,35.6737968 42.1089305,39.3582888 C42.1549198,39.7465241 43.0206952,40.2636364 43.4094652,40.2256684 C43.9051872,40.1759358 44.7720321,39.3122995 44.8185561,38.8165775 C45.1436898,35.3497326 44.9265775,25.813369 45.7934225,25.4882353 C46.8864706,25.0780749 45.6854011,35.8903743 46.01,40.3342246 C46.052246,40.9080214 47.1682888,41.8604278 47.7442246,41.8508021 C48.3763102,41.8385027 49.6041176,40.7486631 49.5864706,40.1171123 C49.4784492,36.2160428 50.3452941,27.0048128 50.669893,25.4882353 C51.3848663,22.1491979 50.669893,35.5652406 50.9955615,39.1417112 C51.0431551,39.6657754 52.2035829,40.3636364 52.7287166,40.3342246 C53.2661497,40.3037433 54.354385,39.4631016 54.354385,38.9245989 C54.354385,34.3727273 55.0046524,23.1037433 55.0046524,23.1037433 C53.1083957,22.8871658 52.8372727,21.9657754 52.7287166,21.586631 C52.0602674,19.2449198 52.6206952,18.5524064 52.6206952,18.5524064 C53.8126738,21.2620321 56.7383422,21.6951872 56.7383422,21.6951872 C57.2805882,22.9951872 57.5399465,24.1491979 58.038877,24.8374332 C59.7538503,27.2016043 61.9394118,25.0545455 61.9394118,25.0545455 L57.7137433,14.9775401 C57.7137433,14.9775401 54.5249733,12.3582888 54.0292513,11.1208556 C53.0062567,8.57058824 54.0292513,0.131016043 54.0292513,0.131016043 L41.3506417,0.131016043 C41.3506417,0.131016043 41.8281818,7.33048128 41.3506417,9.66684492 C40.9495722,11.628877 38.2613369,15.0331551 38.2083957,17.0352941 C38.0993048,21.1534759 37.2329947,28.631016 37.7747059,33.2898396 L37.7747059,33.2898396 Z" id="Stroke-1"></path>
                            <path d="M33.4260963,54.3214439 C33.9228877,54.2642246 34.8752941,53.516631 34.9437433,53.0219786 C34.9972193,52.6342781 34.4672727,51.7214439 34.0768984,51.7214439 C31.2592513,51.7214439 22.8031016,51.470107 24.9742246,50.745508 C26.5993583,50.2043316 35.8105882,50.4203743 39.4950802,49.987754 C39.8827807,49.9428342 40.4004278,49.0759893 40.3619251,48.6872193 C40.3127273,48.1914973 39.4490909,47.3251872 38.953369,47.2786631 C35.4854545,46.9535294 25.9496257,47.1706417 25.624492,46.303262 C25.2148663,45.2102139 36.026631,46.4107487 40.4699465,46.0866845 C41.0442781,46.0444385 41.997754,44.9283957 41.9875936,44.3524599 C41.9752941,43.7203743 40.8854545,42.4936364 40.253369,42.5096791 C36.3522995,42.6182353 27.1416043,41.7519251 25.624492,41.427861 C22.2859893,40.7107487 35.7025668,41.427861 39.2785027,41.1016578 C39.8020321,41.0540642 40.4993583,39.8925668 40.4699465,39.3668984 C40.44,38.8316043 39.5993583,37.743369 39.0619251,37.743369 C34.5100535,37.743369 23.2405348,37.0920321 23.2405348,37.0920321 C23.0239572,38.9882888 22.1025668,39.2594118 21.7234225,39.3668984 C19.3811765,40.0369519 18.6891979,39.4765241 18.6891979,39.4765241 C21.3982888,38.2845455 21.8314439,35.3572727 21.8314439,35.3572727 C23.1319786,34.8160963 24.2859893,34.5572727 24.9742246,34.0578075 C27.3389305,32.343369 25.1908021,30.156738 25.1908021,30.156738 L15.113262,34.3834759 C15.113262,34.3834759 12.4945455,37.5717112 11.2576471,38.0674332 C8.70737968,39.0904278 0.267272727,38.0674332 0.267272727,38.0674332 L0.267272727,50.745508 C0.267272727,50.745508 7.46727273,50.2685027 9.80363636,50.745508 C11.7656684,51.1465775 15.1699465,53.8358824 17.1720856,53.8882888 C21.2902674,53.9973797 28.7672727,54.8642246 33.4260963,54.3214439 L33.4260963,54.3214439 Z" id="Stroke-3"></path>
                            <path d="M66.4960963,30.3340107 C65.9998396,30.3912299 65.0474332,31.1388235 64.9795187,31.6340107 C64.925508,32.0206417 65.4554545,32.9345455 65.8458289,32.9345455 C68.6634759,32.9345455 77.1196257,33.1858824 74.9485027,33.9094118 C73.323369,34.451123 64.112139,34.2350802 60.4276471,34.6682353 C60.0399465,34.7136898 59.5222995,35.5805348 59.5608021,35.9682353 C59.61,36.464492 60.4736364,37.3308021 60.969893,37.3773262 C64.4372727,37.7019251 73.9731016,37.4853476 74.2982353,38.3521925 C74.707861,39.4447059 63.8960963,38.2436364 59.452246,38.5687701 C58.8779144,38.6115508 57.925508,39.7270588 57.9356684,40.3029947 C57.9468984,40.9350802 59.0372727,42.1623529 59.6693583,42.1447059 C63.569893,42.0372193 72.7816578,42.9040642 74.2982353,43.2286631 C77.636738,43.9441711 64.2206952,43.2286631 60.6447594,43.5543316 C60.1206952,43.6019251 59.4228342,44.7623529 59.452246,45.2874866 C59.4827273,45.8249198 60.323369,46.9136898 60.8613369,46.9136898 C65.4126738,46.9136898 76.6821925,47.5634225 76.6821925,47.5634225 C76.8987701,45.6677005 77.8201604,45.3960428 78.1993048,45.2874866 C80.5415508,44.6190374 81.2340642,45.1789305 81.2340642,45.1789305 C78.5244385,46.3709091 78.0912834,49.2971123 78.0912834,49.2971123 C76.7902139,49.8393583 75.636738,50.0987166 74.9485027,50.5981818 C72.5843316,52.3126203 74.7319251,54.4987166 74.7319251,54.4987166 L84.8094652,50.2725134 C84.8094652,50.2725134 87.4276471,47.0842781 88.6650802,46.5885561 C91.2158824,45.5655615 99.6554545,46.5885561 99.6554545,46.5885561 L99.6554545,33.9094118 C99.6554545,33.9094118 92.4554545,34.3869519 90.1190909,33.9094118 C88.1570588,33.508877 84.7527807,30.820107 82.7506417,30.7671658 C78.6329947,30.6586096 71.1554545,29.7912299 66.4960963,30.3340107 L66.4960963,30.3340107 Z" id="Stroke-5"></path>
                            <path d="M61.7631551,52.1348663 C61.7054011,51.6386096 60.9572727,50.6856684 60.4626203,50.6182888 C60.0754545,50.5642781 59.1626203,51.0936898 59.1626203,51.4845989 C59.1626203,54.302246 58.9107487,62.757861 58.1872193,60.5872727 C57.645508,58.9616043 57.8615508,49.7514439 57.4289305,46.0658824 C57.3829412,45.6787166 56.516631,45.1605348 56.1283957,45.1990374 C55.632139,45.2482353 54.7658289,46.1118717 54.7193048,46.6081283 C54.3941711,50.0749733 54.6107487,59.6113369 53.7439037,59.9370053 C52.6513904,60.346631 53.8524599,49.5343316 53.527861,45.091016 C53.485615,44.5166845 52.3695722,43.5632086 51.7931016,43.5739037 C51.1615508,43.5851337 49.9342781,44.6749733 49.9513904,45.3081283 C50.0594118,49.2086631 49.1931016,58.4204278 48.8674332,59.9370053 C48.1519251,63.275508 48.8674332,49.8589305 48.5428342,46.2835294 C48.4952406,45.7583957 47.3348128,45.062139 46.8091444,45.091016 C46.272246,45.1214973 45.1834759,45.962139 45.1834759,46.500107 C45.1834759,51.0509091 44.5332086,62.3214973 44.5332086,62.3214973 C46.4294652,62.5375401 46.7005882,63.4583957 46.8091444,63.8375401 C47.4781283,66.1792513 46.9171658,66.8722995 46.9171658,66.8722995 C45.7257219,64.1626738 42.7995187,63.7295187 42.7995187,63.7295187 C42.2572727,62.428984 41.9979144,61.275508 41.498984,60.5872727 C39.7845455,58.2225668 37.5979144,60.3701604 37.5979144,60.3701604 L41.8241176,70.4477005 C41.8241176,70.4477005 45.0123529,73.0664171 45.5086096,74.3033155 C46.5316043,76.8541176 45.5086096,85.2942246 45.5086096,85.2942246 L58.1872193,85.2942246 C58.1872193,85.2942246 57.7102139,78.0931551 58.1872193,75.757861 C58.5882888,73.7958289 61.2770588,70.391016 61.3289305,68.3894118 C61.4380214,64.2712299 62.3048663,56.7936898 61.7631551,52.1348663 L61.7631551,52.1348663 Z" id="Stroke-7"></path>
                        </g>
                    </g>
                </g>
            </g>
        </g>
    </g>
</svg>