<?xml version="1.0" encoding="UTF-8" standalone="no"?>
<svg width="62px" height="81px" viewBox="0 0 62 81" version="1.1" xmlns="http://www.w3.org/2000/svg" xmlns:xlink="http://www.w3.org/1999/xlink" xmlns:sketch="http://www.bohemiancoding.com/sketch/ns">
    <!-- Generator: Sketch 3.4.4 (17249) - http://www.bohemiancoding.com/sketch -->
    <title>Page 1</title>
    <desc>Created with Sketch.</desc>
    <defs></defs>
    <g id="Page-1" stroke="none" stroke-width="1" fill="none" fill-rule="evenodd" sketch:type="MSPage">
        <g id="Desktop" sketch:type="MSArtboardGroup" transform="translate(-523.000000, -605.000000)" stroke="#221F20">
            <g id="icons" sketch:type="MSLayerGroup" transform="translate(122.000000, 595.000000)">
                <g id="Culture" transform="translate(45.000000, 0.000000)" sketch:type="MSShapeGroup">
                    <path d="M379.126055,29.8883724 C379.126055,29.8883724 378.860625,37.3162648 378.966429,39.5979484 C378.98023,39.884539 379.921424,40.2346118 379.921424,40.2346118 C379.921424,40.2346118 379.615513,41.3381923 379.762718,41.6671043 C379.902103,41.9799158 380.876879,42.4629335 380.876879,42.4629335 C380.876879,42.4629335 380.124292,45.3219383 380.240216,46.2833736 C380.312438,46.8850756 381.195211,48.5116953 381.195211,48.5116953 L379.921424,69.8412974 L375.783112,70.7962924 L375.783112,90.3746103 L399.500202,90.3746103 L399.500202,70.9554582 L396.1683,69.8523378 L394.724767,56.6296129 C394.724767,56.6296129 395.416632,56.2252581 395.521056,55.9929496 C396.123218,54.6474003 395.202264,50.1033536 395.202264,50.1033536 C395.202264,50.1033536 395.829727,49.6916385 395.839388,49.4666903 C396.051456,44.5320894 394.724767,29.8883724 394.724767,29.8883724 L398.704833,28.7742116 C398.704833,28.7742116 405.029605,29.2843703 406.663125,28.1370882 C407.843988,27.3085978 409.051072,22.8846156 409.051072,22.8846156 C409.051072,22.8846156 411.203031,23.1233644 411.915597,23.0437815 C412.779509,22.9471779 414.495372,22.5041817 415.25854,22.0887864 C415.630233,21.886379 416.63813,21.3840406 416.531867,20.9746256 C416.388801,20.4230654 414.71986,20.8858423 414.303545,20.4966681 C414.197741,20.3982245 414.262143,20.0242307 414.144379,19.9400477 C413.464474,19.4519698 411.572885,19.7749016 410.801436,20.0992135 C410.451364,20.2464189 410.036888,20.985206 409.687736,21.1337914 C407.725304,21.968262 401.171903,21.6112889 401.171903,21.6112889 L395.679762,20.4966681 C395.679762,20.4966681 393.620726,19.6626575 392.89482,19.541673 C392.188234,19.4239087 390.029375,19.541673 390.029375,19.541673 C390.029375,19.541673 390.43787,14.5141487 389.949792,12.9358308 C389.801206,12.4564933 389.274947,11.5083985 388.835171,11.2650496 C388.26107,10.9462579 386.805117,10.9094565 386.208935,11.1850066 C385.631153,11.4522764 384.855105,12.5839179 384.617736,13.1745796 C384.042715,14.6020119 385.134795,18.2021039 384.060656,19.3029243 C383.392711,19.9869694 381.18233,19.2238014 380.240216,19.3829672 C379.53869,19.5007315 378.236382,20.1475153 377.533937,20.2579193 C377.062419,20.3329021 376.092704,20.167756 375.623947,20.2579193 C374.992803,20.3798238 373.866222,21.0864097 373.236459,21.2133743 C370.992957,21.6655709 366.246043,22.1223677 364.083963,21.3725402 C363.666728,21.2276349 363.064106,20.494828 362.651471,20.3379622 C361.922344,20.0601121 360.009134,19.3907875 359.547277,20.0191706 C359.457574,20.141535 359.866989,20.4483663 359.786026,20.576711 C359.509096,21.014187 358.197128,20.4630868 357.71687,20.6562939 C357.494682,20.7455372 356.989583,21.0532885 357.000164,21.2929573 C357.021784,21.7617145 358.089944,22.2019506 358.512239,22.4071181 C359.255626,22.7673113 360.879486,23.1624658 361.696016,23.2825302 C362.542907,23.4067348 364.404595,22.8901358 365.118541,23.3621131 C365.883549,23.8681317 366.630617,26.7050557 366.630617,26.7050557 L368.302318,28.5354628 L371.166843,28.6946287 L374.828117,28.375837 L379.126055,29.8883724 L379.126055,29.8883724 Z" id="Page-1"></path>
                </g>
            </g>
        </g>
    </g>
</svg>