<?xml version="1.0" encoding="UTF-8" standalone="no"?>
<svg width="51px" height="68px" viewBox="0 0 51 68" version="1.1" xmlns="http://www.w3.org/2000/svg" xmlns:xlink="http://www.w3.org/1999/xlink" xmlns:sketch="http://www.bohemiancoding.com/sketch/ns">
    <!-- Generator: Sketch 3.4.4 (17249) - http://www.bohemiancoding.com/sketch -->
    <title>Page 1</title>
    <desc>Created with Sketch.</desc>
    <defs></defs>
    <g id="Page-1" stroke="none" stroke-width="1" fill="none" fill-rule="evenodd" sketch:type="MSPage">
        <g id="Desktop" sketch:type="MSArtboardGroup" transform="translate(-842.000000, -618.000000)" stroke="#221F20">
            <g id="icons" sketch:type="MSLayerGroup" transform="translate(122.000000, 595.000000)">
                <g id="Strength" transform="translate(643.000000, 0.000000)" sketch:type="MSShapeGroup">
                    <path d="M89.9837322,46.9166649 C88.5328164,45.4799593 87.106401,44.0643241 86.8525765,42.8446924 C86.5389709,41.3384056 87.0980708,38.0102664 88.059958,36.809255 C89.29821,35.2622975 93.3643024,34.001505 95.3027769,33.5898977 C99.0425234,32.7965736 106.914024,32.5545093 110.593989,33.5898977 C112.636345,34.1651679 116.728898,36.2070343 117.836808,38.0161465 C118.52184,39.1343464 118.595341,41.9852171 118.239595,43.2474796 C117.823578,44.7214258 116.082087,46.418326 114.281795,48.1519769 C110.548418,45.5691409 106.021228,44.0520739 101.137801,44.0520739 C97.0927787,44.0520739 93.2922711,45.0923624 89.9837322,46.9166649 L89.9837322,46.9166649 Z M127.49439,42.8446924 C127.287606,39.731667 125.145288,33.5041462 123.068141,31.1756247 C120.73178,28.5570181 114.00396,25.5660049 110.593989,24.7369101 C106.781231,23.8117736 98.6838371,23.6985816 94.9004797,24.7369101 C91.2905855,25.7286878 84.3736223,29.4679443 82.0240305,32.3830062 C80.027735,34.8600003 77.9853786,41.2732344 78.0000789,44.4548611 C78.0128191,47.2361506 78.8639643,53.1936766 80.8881903,55.9945665 C79.0501676,59.3124155 78.0000789,63.1281135 78.0000789,67.1897958 C78.0000789,79.9682432 88.3593533,90.3275176 101.137801,90.3275176 C113.915758,90.3275176 124.275033,79.9682432 124.275033,67.1897958 C124.275033,64.9774064 123.957997,62.8409684 123.378317,60.8147823 C124.428405,57.5846448 127.765855,46.9328352 127.49439,42.8446924 L127.49439,42.8446924 Z" id="Page-1"></path>
                </g>
            </g>
        </g>
    </g>
</svg>