<?xml version="1.0" encoding="utf-8"?>
<!-- Generator: Adobe Illustrator 16.0.0, SVG Export Plug-In . SVG Version: 6.00 Build 0)  -->
<!DOCTYPE svg PUBLIC "-//W3C//DTD SVG 1.1//EN" "http://www.w3.org/Graphics/SVG/1.1/DTD/svg11.dtd">
<svg version="1.1" id="Layer_1" xmlns:sketch="http://www.bohemiancoding.com/sketch/ns"
	 xmlns="http://www.w3.org/2000/svg" xmlns:xlink="http://www.w3.org/1999/xlink" x="0px" y="0px" width="35.75px" height="36px"
	 viewBox="-1.75 0 35.75 36" enable-background="new -1.75 0 35.75 36" xml:space="preserve">
<title>Fill 6</title>
<desc>Created with Sketch.</desc>
<path id="path6699_1_" fill="#FFFFFF" d="M-1.441,21.796c2.262,2.092,8.069,4.071,12.796-0.562c-0.85,0.133-1.56-0.027-2.098-0.562
	c-0.511-0.507-0.54-1.03-0.266-1.507c0.223-0.388,0.691-0.66,1.152-0.946c-0.836,0.156-1.55,0.076-2.187-0.251
	c-0.856-0.437-1.688-0.897-1.92-1.846c0.522-0.551,1.104-1.042,2.364-0.857c-1.185-0.395-2.246-0.911-3.014-1.685
	c-0.749-0.753-0.826-1.242-0.946-1.833c0.654-0.242,1.336-0.368,2.068-0.296c-1.656-0.846-2.359-2.01-2.748-3.279
	C3.643,7.789,3.621,7.424,3.671,7.049c6.708,2.533,9.849,4.352,11.584,6.059c0.78-2.077,2.6-6.778,5.318-8.393
	c0.013,0.256-0.089,0.531-0.296,0.827c0.806-0.449,1.435-1.166,2.542-1.152c-0.127,0.524-0.494,0.943-1.211,1.211
	c0.725-0.277,1.457-0.512,2.216-0.65c0.705-0.127,0.693,0.428,0.295,0.709c-0.809,0.572-1.667,0.643-2.511,0.917
	c2.587,0.064,4.702,1.29,6.354,3.959c0.549,0.888,0.918,1.776,1.004,2.748c1.103,0.31,2.202,0.373,3.311,0.178
	c0.303-0.055,0.586-0.111,0.857-0.237c-0.433,0.647-0.929,1.178-1.627,1.418c-0.665,0.23-1.331,0.454-2.067,0.474
	c1.197,0.453,2.518,0.479,3.87,0.384c-1.655,1.594-2.923,1.556-4.195,1.536c-0.559,2.356-1.698,4.705-4.108,6.856
	c-3.16,2.821-6.562,4.168-10.076,4.462c-3.295,0.276-6.481,0.239-9.959-1.39C2.393,25.761,0.232,24.1-1.441,21.796L-1.441,21.796z"
	/>
</svg>
