<?xml version="1.0" encoding="utf-8"?>
<!-- Generator: Adobe Illustrator 16.0.0, SVG Export Plug-In . SVG Version: 6.00 Build 0)  -->
<!DOCTYPE svg PUBLIC "-//W3C//DTD SVG 1.1//EN" "http://www.w3.org/Graphics/SVG/1.1/DTD/svg11.dtd">
<svg version="1.1" id="Layer_1" xmlns:sketch="http://www.bohemiancoding.com/sketch/ns"
	 xmlns="http://www.w3.org/2000/svg" xmlns:xlink="http://www.w3.org/1999/xlink" x="0px" y="0px" width="35.75px" height="36px"
	 viewBox="-1.75 0 35.75 36" enable-background="new -1.75 0 35.75 36" xml:space="preserve">
<title>Fill 6</title>
<desc>Created with Sketch.</desc>
<path id="path6699_1_" fill="#FFFFFF" d="M0.001,21.261c2.062,1.907,7.357,3.712,11.667-0.513c-0.774,0.121-1.422-0.025-1.913-0.512
	c-0.466-0.462-0.492-0.939-0.242-1.374c0.203-0.354,0.63-0.603,1.051-0.862c-0.763,0.142-1.413,0.068-1.994-0.229
	c-0.78-0.398-1.539-0.818-1.751-1.684c0.477-0.502,1.007-0.95,2.155-0.781c-1.08-0.36-2.048-0.831-2.748-1.536
	c-0.683-0.687-0.753-1.133-0.862-1.671c0.596-0.221,1.218-0.335,1.886-0.27c-1.51-0.771-2.151-1.833-2.506-2.99
	c-0.106-0.35-0.127-0.683-0.081-1.024c6.116,2.31,8.98,3.968,10.562,5.524c0.711-1.894,2.37-6.181,4.85-7.652
	c0.012,0.233-0.081,0.484-0.27,0.754c0.734-0.409,1.308-1.063,2.317-1.051c-0.116,0.478-0.45,0.86-1.104,1.104
	c0.66-0.252,1.328-0.467,2.021-0.593c0.643-0.116,0.633,0.391,0.27,0.646c-0.737,0.521-1.521,0.586-2.29,0.836
	c2.358,0.059,4.287,1.176,5.793,3.61c0.501,0.81,0.837,1.619,0.916,2.506c1.006,0.282,2.008,0.34,3.019,0.162
	c0.276-0.05,0.534-0.102,0.781-0.216c-0.394,0.59-0.847,1.074-1.482,1.293c-0.606,0.21-1.215,0.414-1.886,0.432
	c1.092,0.413,2.295,0.437,3.529,0.351c-1.51,1.453-2.666,1.418-3.826,1.4c-0.509,2.148-1.549,4.29-3.745,6.252
	c-2.882,2.572-5.983,3.8-9.188,4.068c-3.004,0.252-5.909,0.218-9.08-1.267C3.497,24.876,1.526,23.361,0.001,21.261L0.001,21.261z"/>
</svg>
