<?xml version="1.0" encoding="UTF-8" standalone="no"?>
<svg width="30px" height="36px" viewBox="0 0 30 36" version="1.1" xmlns="http://www.w3.org/2000/svg" xmlns:xlink="http://www.w3.org/1999/xlink" xmlns:sketch="http://www.bohemiancoding.com/sketch/ns">
    <!-- Generator: Sketch 3.5.1 (25234) - http://www.bohemiancoding.com/sketch -->
    <title>Fill 6</title>
    <desc>Created with Sketch.</desc>
    <defs></defs>
    <g id="Page-1" stroke="none" stroke-width="1" fill="none" fill-rule="evenodd" sketch:type="MSPage">
        <g id="Desktop" sketch:type="MSArtboardGroup" transform="translate(-908.000000, -1621.000000)" fill="#FEFEFE">
            <g id="footer" sketch:type="MSLayerGroup" transform="translate(0.000000, 1600.000000)">
                <g id="social-media-icons" transform="translate(839.000000, 14.000000)" sketch:type="MSShapeGroup">
                    <g id="Group-7">
                        <path d="M76.6177,21.2024 L78.7507,21.2024 L78.7532,13.8294 L81.2732,7.5129 L78.9407,7.5129 L77.6007,12.2044 L76.2417,7.5004 L73.9337,7.5004 L76.6147,13.8334 L76.6177,21.2024 Z M82.8742,18.6184 C82.8742,19.1634 83.2797,19.6079 83.7727,19.6079 C84.2662,19.6079 84.6697,19.1634 84.6697,18.6184 L84.6697,13.5004 C84.6697,12.9564 84.2662,12.5119 83.7727,12.5119 C83.2797,12.5119 82.8742,12.9564 82.8742,13.5004 L82.8742,18.6184 Z M81.1037,14.7989 C81.1037,13.8764 81.1812,13.1564 81.3337,12.6369 C81.4872,12.1194 81.7642,11.7024 82.1647,11.3889 C82.5642,11.0734 83.0752,10.9164 83.6972,10.9164 C84.2202,10.9164 84.6682,11.0189 85.0427,11.2199 C85.4187,11.4219 85.7087,11.6849 85.9102,12.0079 C86.1152,12.3334 86.2537,12.6674 86.3287,13.0089 C86.4042,13.3559 86.4417,13.8794 86.4417,14.5834 L86.4417,17.0149 C86.4417,17.9064 86.4057,18.5629 86.3367,18.9789 C86.2687,19.3969 86.1207,19.7844 85.8917,20.1479 C85.6662,20.5069 85.3747,20.7754 85.0217,20.9464 C84.6647,21.1204 84.2562,21.2044 83.7947,21.2044 C83.2797,21.2044 82.8452,21.1339 82.4872,20.9844 C82.1287,20.8374 81.8517,20.6144 81.6542,20.3184 C81.4547,20.0219 81.3142,19.6604 81.2297,19.2404 C81.1447,18.8194 81.1037,18.1879 81.1037,17.3449 L81.1037,14.7989 Z M87.9547,20.2299 C88.0587,20.4839 88.2212,20.6899 88.4422,20.8449 C88.6597,20.9984 88.9392,21.0754 89.2722,21.0754 C89.5642,21.0754 89.8232,20.9964 90.0487,20.8334 C90.2737,20.6714 90.4632,20.4289 90.6177,20.1059 L90.5797,20.9014 L92.8402,20.9014 L92.8402,11.2884 L91.0607,11.2884 L91.0607,18.7709 C91.0607,19.1749 90.7262,19.5069 90.3182,19.5069 C89.9127,19.5069 89.5777,19.1749 89.5777,18.7709 L89.5777,11.2884 L87.7207,11.2884 L87.7207,17.7729 C87.7207,18.5979 87.7352,19.1489 87.7592,19.4279 C87.7867,19.7054 87.8502,19.9719 87.9547,20.2299 L87.9547,20.2299 Z M95.7542,35.8729 L94.2337,35.8809 C94.2327,35.9414 94.2312,36.0109 94.2302,36.0869 L94.2302,36.9354 C94.2302,37.3899 93.8552,37.7589 93.3992,37.7589 L93.1017,37.7589 C92.6452,37.7589 92.2707,37.3899 92.2707,36.9354 L92.2707,36.8409 L92.2707,35.9084 L92.2707,34.7029 L95.7527,34.7029 L95.7527,33.3924 C95.7527,32.4354 95.7282,31.4774 95.6492,30.9299 C95.3997,29.1984 92.9682,28.9229 91.7402,29.8094 C91.3547,30.0869 91.0607,30.4569 90.8887,30.9549 C90.7157,31.4539 90.6302,32.1349 90.6302,32.9989 L90.6302,35.8799 C90.6302,40.6709 96.4487,39.9934 95.7542,35.8729 L95.7542,35.8729 Z M89.4077,36.5139 L89.4032,31.6809 C89.4017,29.8389 88.0237,28.7354 86.1527,30.2254 L86.1617,26.6329 L84.1347,26.6359 L84.1252,39.0369 L85.7907,39.0129 L85.9427,38.2404 C88.0722,40.1944 89.4107,38.8564 89.4077,36.5139 L89.4077,36.5139 Z M82.9197,29.8644 L80.8917,29.8644 L80.8917,35.6709 C80.8917,36.5109 80.9422,36.9309 80.8887,37.0789 C80.7237,37.5294 79.9822,38.0069 79.6937,37.1279 C79.6447,36.9734 79.6882,36.5089 79.6872,35.7109 L79.6787,29.8644 L77.6622,29.8644 L77.6682,35.6189 C77.6697,36.5009 77.6487,37.1594 77.6747,37.4579 C77.7242,37.9854 77.7072,38.6014 78.1967,38.9524 C79.1087,39.6094 80.8572,38.8544 81.2947,37.9139 L81.2912,39.1134 L82.9197,39.1154 L82.9197,29.8644 Z M75.6282,39.1184 L75.6267,28.2449 L78.0592,28.2449 L78.0592,26.6349 L71.5752,26.6249 L71.5752,28.2089 L73.5992,28.2139 L73.5992,39.1184 L75.6282,39.1184 Z M98.7137,27.6749 L98.7137,37.9979 C98.7137,40.4734 96.5662,42.4999 93.9422,42.4999 L74.3192,42.4999 C71.6932,42.4999 69.5467,40.4734 69.5467,37.9979 L69.5467,27.6749 C69.5467,25.1994 71.6932,23.1729 74.3192,23.1729 L93.9422,23.1729 C96.5662,23.1729 98.7137,25.1994 98.7137,27.6749 L98.7137,27.6749 Z M87.0137,30.7099 C86.5257,30.7099 86.1277,31.0369 86.1277,31.4384 L86.1277,36.8654 C86.1277,37.2649 86.5257,37.5919 87.0137,37.5919 C87.5032,37.5919 87.9012,37.2649 87.9012,36.8654 L87.9012,31.4384 C87.9012,31.0369 87.5032,30.7099 87.0137,30.7099 L87.0137,30.7099 Z M94.2187,33.1014 L92.2967,33.1014 L92.3062,31.9854 C92.3062,31.4894 92.7132,31.0839 93.2117,31.0839 L93.3342,31.0839 C93.8332,31.0839 94.2407,31.4894 94.2407,31.9854 L94.2187,33.1014 Z" id="Fill-6"></path>
                    </g>
                </g>
            </g>
        </g>
    </g>
</svg>